HIERARCHY
ROOT Hips
{
	OFFSET 0.000000 0.000000 0.000000
	CHANNELS 6 Xposition Yposition Zposition Zrotation Yrotation Xrotation 
	JOINT LHipJoint
	{
		OFFSET 0.000000 0.000000 0.000000
		CHANNELS 3 Zrotation Yrotation Xrotation
		JOINT LeftUpLeg
		{
			OFFSET 1.363060 -1.794630 0.839290
			CHANNELS 3 Zrotation Yrotation Xrotation
			JOINT LeftLeg
			{
				OFFSET 2.448110 -6.726130 0.000000
				CHANNELS 3 Zrotation Yrotation Xrotation
				JOINT LeftFoot
				{
					OFFSET 2.562200 -7.039590 0.000000
					CHANNELS 3 Zrotation Yrotation Xrotation
					JOINT LeftToeBase
					{
						OFFSET 0.157640 -0.433110 2.322550
						CHANNELS 3 Zrotation Yrotation Xrotation
						End Site
						{
							OFFSET 0.000000 0.000000 0.000000
						}
					}
				}
			}
		}
	}
	JOINT RHipJoint
	{
		OFFSET 0.000000 0.000000 0.000000
		CHANNELS 3 Zrotation Yrotation Xrotation
		JOINT RightUpLeg
		{
			OFFSET -1.305520 -1.794630 0.839290
			CHANNELS 3 Zrotation Yrotation Xrotation
			JOINT RightLeg
			{
				OFFSET -2.542530 -6.985550 0.000000
				CHANNELS 3 Zrotation Yrotation Xrotation
				JOINT RightFoot
				{
					OFFSET -2.568260 -7.056230 0.000000
					CHANNELS 3 Zrotation Yrotation Xrotation
					JOINT RightToeBase
					{
						OFFSET -0.164730 -0.452590 2.363150
						CHANNELS 3 Zrotation Yrotation Xrotation
						End Site
						{
							OFFSET 0.000000 0.000000 0.000000
						}
					}
				}
			}
		}
	}
	JOINT LowerBack
	{
		OFFSET 0.000000 0.000000 0.000000
		CHANNELS 3 Zrotation Yrotation Xrotation
		JOINT Spine
		{
			OFFSET 0.028270 2.035590 -0.193380
			CHANNELS 3 Zrotation Yrotation Xrotation
			JOINT Spine1
			{
				OFFSET 0.056720 2.048850 -0.042750
				CHANNELS 3 Zrotation Yrotation Xrotation
				JOINT Neck
				{
					OFFSET 0.000000 0.000000 0.000000
					CHANNELS 3 Zrotation Yrotation Xrotation
					JOINT Neck1
					{
						OFFSET -0.054170 1.746240 0.172020
						CHANNELS 3 Zrotation Yrotation Xrotation
						JOINT Head
						{
							OFFSET 0.104070 1.761360 -0.123970
							CHANNELS 3 Zrotation Yrotation Xrotation
							End Site
							{
								OFFSET 0.000000 0.000000 0.000000
							}
						}
					}
				}
				JOINT LeftShoulder
				{
					OFFSET 0.000000 0.000000 0.000000
					CHANNELS 3 Zrotation Yrotation Xrotation
					JOINT LeftArm
					{
						OFFSET 3.362410 1.200890 -0.311210
						CHANNELS 3 Zrotation Yrotation Xrotation
						JOINT LeftForeArm
						{
							OFFSET 4.983000 -0.000000 -0.000000
							CHANNELS 3 Zrotation Yrotation Xrotation
							JOINT LeftHand
							{
								OFFSET 3.483560 -0.000000 -0.000000
								CHANNELS 3 Zrotation Yrotation Xrotation
								JOINT LeftFingerBase
								{
									OFFSET 0.000000 0.000000 0.000000
									CHANNELS 3 Zrotation Yrotation Xrotation
									JOINT LeftHandIndex1
									{
										OFFSET 0.715260 -0.000000 -0.000000
										CHANNELS 3 Zrotation Yrotation Xrotation
										End Site
										{
											OFFSET 0.000000 0.000000 0.000000
										}
									}
								}
								JOINT LThumb
								{
									OFFSET 0.000000 0.000000 0.000000
									CHANNELS 3 Zrotation Yrotation Xrotation
									End Site
									{
										OFFSET 0.000000 0.000000 0.000000
									}
								}
							}
						}
					}
				}
				JOINT RightShoulder
				{
					OFFSET 0.000000 0.000000 0.000000
					CHANNELS 3 Zrotation Yrotation Xrotation
					JOINT RightArm
					{
						OFFSET -3.136600 1.374050 -0.404650
						CHANNELS 3 Zrotation Yrotation Xrotation
						JOINT RightForeArm
						{
							OFFSET -5.241900 -0.000000 -0.000000
							CHANNELS 3 Zrotation Yrotation Xrotation
							JOINT RightHand
							{
								OFFSET -3.444170 -0.000000 -0.000000
								CHANNELS 3 Zrotation Yrotation Xrotation
								JOINT RightFingerBase
								{
									OFFSET 0.000000 0.000000 0.000000
									CHANNELS 3 Zrotation Yrotation Xrotation
									JOINT RightHandIndex1
									{
										OFFSET -0.622530 -0.000000 -0.000000
										CHANNELS 3 Zrotation Yrotation Xrotation
										End Site
										{
											OFFSET 0.000000 0.000000 0.000000
										}
									}
								}
								JOINT RThumb
								{
									OFFSET 0.000000 0.000000 0.000000
									CHANNELS 3 Zrotation Yrotation Xrotation
									End Site
									{
										OFFSET 0.000000 0.000000 0.000000
									}
								}
							}
						}
					}
				}
			}
		}
	}
}
MOTION
Frames: 8
Frame Time: 0.008333
5.112321 17.374726 1.063560 -175.945914 -65.063579 -172.928558 -12.328956 3.933327 -0.155289 -9.306769 31.944963 -15.441996 -3.439291 -1.233861 -4.627584 0.957145 7.567832 1.014132 1.148200 0.000000 -27.662900 8.307642 -1.776831 5.944220 5.065328 7.078065 -13.551334 3.833411 2.354421 -4.211795 1.477917 7.447670 5.888111 0.955800 -0.000000 -36.032400 4.069262 -6.398196 -8.151244 0.716974 -6.934073 -4.886491 -5.873182 -7.122445 -2.727210 10.460455 -1.821735 2.145844 -1.558065 -0.260073 2.755878 0.000000 0.000000 0.000000 18.172010 -9.586971 5.296826 -29.393092 -44.296457 0.448132 -4.557251 -3.193609 -0.046547 -21.879950 21.510477 -4.243335 0.023510 -0.159297 0.000000 0.000000 0.000000 0.000000 0.000000 0.000000 0.000000 4.581645 -4.411574 -10.456294 87.971003 66.256683 10.759289 -174.305319 59.236749 179.633623 -18.631723 21.052701 -3.716849 0.001712 -1.230801 0.000000 0.000000 0.000000 0.000000 0.000000 0.000000 0.000000 
5.107214 17.374994 1.066755 -176.173980 -64.831660 -172.884165 -12.354512 3.949858 -0.170156 -9.261021 31.996634 -15.222672 -3.422610 -1.226171 -4.504934 0.984376 7.791120 0.905049 1.162600 -0.000000 -27.556600 8.292471 -1.795887 5.961707 4.964839 7.188465 -13.411328 3.818131 2.334125 -4.129465 1.477537 7.533914 5.850063 0.979500 0.000000 -36.003800 4.349128 -6.329442 -8.152447 0.777389 -6.877412 -4.860045 -5.835654 -7.060805 -2.503653 9.916887 -2.089997 2.065823 -1.626079 -0.261952 2.732054 0.000000 0.000000 0.000000 16.946180 -8.654913 5.316857 -33.180428 -43.539161 5.489299 -4.601612 -6.603658 -0.051528 -20.745300 22.012588 -4.101749 -0.019135 -0.134587 0.000000 0.000000 0.000000 0.000000 0.000000 0.000000 0.000000 4.110418 -4.593557 -10.473036 87.900935 66.220144 10.974044 -174.349624 59.109193 179.639148 -18.105713 20.992159 -3.598396 -0.009212 -1.231693 0.000000 0.000000 0.000000 0.000000 0.000000 0.000000 0.000000 
5.102799 17.374152 1.069416 -176.413595 -64.525155 -172.819726 -12.377959 3.956219 -0.204863 -9.218206 32.068182 -15.011949 -3.404808 -1.215541 -4.336588 1.020201 8.071045 0.747700 1.176900 0.000000 -27.438700 8.276390 -1.808393 5.977577 4.854633 7.333905 -13.261365 3.805146 2.315064 -4.093857 1.485970 7.669321 5.837142 1.013900 0.000000 -35.970200 4.606039 -6.246617 -8.119466 0.834599 -6.810574 -4.831812 -5.800802 -6.988158 -2.319479 9.410067 -2.338866 1.968560 -1.686679 -0.263143 2.704168 0.000000 0.000000 0.000000 15.447564 -7.666617 5.280639 -36.327630 -42.592472 8.459734 -4.416114 -10.318244 -0.054804 -17.769073 22.763876 -3.611720 -0.064257 -0.105385 -0.000000 0.000000 0.000000 0.000000 0.000000 0.000000 0.000000 3.657063 -4.690641 -10.452129 87.601875 66.221945 10.938253 -174.394940 58.914658 179.644139 -17.647984 20.942591 -3.496649 -0.017996 -1.232910 0.000000 0.000000 0.000000 0.000000 0.000000 0.000000 0.000000 
5.098903 17.372163 1.071206 -176.658708 -64.167140 -172.729578 -12.398294 3.952890 -0.254384 -9.187929 32.157607 -14.827152 -3.388378 -1.204016 -4.128687 1.061603 8.385001 0.549618 1.188500 0.000000 -27.315900 8.259550 -1.817809 5.996522 4.734564 7.508446 -13.108818 3.794796 2.299326 -4.119387 1.503620 7.843030 5.853633 1.055600 0.000000 -35.936500 4.829519 -6.143966 -8.065971 0.883496 -6.726240 -4.807843 -5.777455 -6.898596 -2.186880 8.948250 -2.569924 1.873488 -1.739966 -0.264013 2.677689 0.000000 0.000000 0.000000 13.745265 -6.704401 5.176693 -38.913808 -41.358436 10.065520 -4.064022 -14.597197 -0.056277 -13.681989 23.276265 -2.820725 -0.104433 -0.067778 -0.000000 0.000000 0.000000 0.000000 0.000000 0.000000 0.000000 3.223032 -4.725303 -10.380910 87.039276 66.238868 10.594495 -174.437182 58.651285 179.648236 -17.309562 20.888713 -3.419398 -0.023097 -1.234110 0.000000 0.000000 0.000000 0.000000 0.000000 0.000000 0.000000 
5.095565 17.369037 1.071964 -176.904541 -63.781778 -172.611524 -12.414314 3.940072 -0.314049 -9.178733 32.266021 -14.686451 -3.375944 -1.193415 -3.887278 1.105145 8.707618 0.319524 1.194400 0.000000 -27.195800 8.242221 -1.827363 6.022995 4.606077 7.704995 -12.962123 3.787351 2.288591 -4.217426 1.531103 8.044652 5.903305 1.101300 -0.000001 -35.907800 5.011461 -6.015562 -8.005425 0.920750 -6.616939 -4.792118 -5.769989 -6.785860 -2.108534 8.536688 -2.786450 1.791794 -1.786215 -0.264786 2.655739 0.000000 0.000000 0.000000 11.890935 -5.801135 5.003539 -40.981326 -39.872291 10.884081 -3.618065 -19.521985 -0.055880 -9.376952 23.152970 -1.902053 -0.133362 -0.022116 0.000000 0.000000 0.000000 0.000000 0.000000 0.000000 0.000000 2.809004 -4.725220 -10.255761 86.202131 66.251134 9.911774 -174.472689 58.323574 179.651183 -17.129249 20.814584 -3.371735 -0.023322 -1.234885 0.000000 0.000000 0.000000 0.000000 0.000000 0.000000 0.000000 
5.092667 17.364890 1.071566 -177.144072 -63.389763 -172.466891 -12.425262 3.918257 -0.379657 -9.195817 32.396018 -14.603655 -3.369727 -1.185199 -3.620081 1.147459 9.014421 0.066446 1.192400 0.000000 -27.085200 8.224650 -1.839692 6.060311 4.472598 7.915857 -12.828680 3.783017 2.283914 -4.393334 1.568698 8.265039 5.989069 1.148200 0.000000 -35.887100 5.147783 -5.857981 -7.949368 0.945458 -6.478220 -4.784132 -5.777910 -6.646045 -2.070239 8.178055 -2.993587 1.719688 -1.825352 -0.265399 2.637109 0.000000 0.000000 0.000000 9.941103 -4.924008 4.775152 -42.602588 -38.303461 11.313925 -3.157173 -24.965786 -0.053348 -5.744608 22.370248 -1.108513 -0.146965 0.026297 0.000000 0.000000 0.000000 0.000000 0.000000 0.000000 0.000000 2.415384 -4.717062 -10.086401 85.112524 66.248007 8.897459 -174.498129 57.940943 179.652829 -17.130954 20.705986 -3.355860 -0.017960 -1.234783 0.000000 0.000000 0.000000 0.000000 0.000000 0.000000 0.000000 
5.089913 17.359902 1.070091 -177.365779 -63.006315 -172.301805 -12.431091 3.888805 -0.446736 -9.241088 32.551103 -14.587536 -3.371270 -1.180401 -3.336222 1.185631 9.284983 -0.199921 1.181400 -0.000000 -26.988900 8.206958 -1.855395 6.107407 4.343941 8.138863 -12.811183 3.775967 2.268554 -4.439588 1.603319 8.501024 5.997211 1.194200 0.000001 -35.876600 5.238149 -5.673914 -7.905686 0.958903 -6.312136 -4.779480 -5.796694 -6.480763 -2.045768 7.873514 -3.197158 1.641922 -1.856961 -0.265582 2.617262 0.000000 0.000000 0.000000 7.989058 -4.004848 4.514721 -43.925135 -36.863612 11.582582 -2.743575 -30.680530 -0.047958 -3.398591 21.241203 -0.609727 -0.144462 0.069946 0.000000 0.000000 0.000000 0.000000 0.000000 0.000000 0.000000 2.043976 -4.717936 -9.892202 83.822868 66.228098 7.595936 -174.511054 57.517023 179.653182 -17.318658 20.550496 -3.370272 -0.006956 -1.233330 0.000000 0.000000 0.000000 0.000000 0.000000 0.000000 0.000000 
5.087090 17.354390 1.067637 -177.562642 -62.641905 -172.122578 -12.432074 3.853706 -0.510996 -9.314123 32.731375 -14.641297 -3.381090 -1.179299 -3.045029 1.217640 9.505551 -0.469971 1.161400 -0.000000 -26.908900 8.189025 -1.873438 6.161288 4.231042 8.373063 -13.021203 3.760184 2.223527 -4.120071 1.618060 8.750886 5.799900 1.237900 0.000000 -35.875300 5.286058 -5.471519 -7.879494 0.963888 -6.126495 -4.773138 -5.819151 -6.296619 -2.009831 7.620468 -3.399828 1.542767 -1.881065 -0.265081 2.591501 0.000000 0.000000 0.000000 6.157635 -2.989662 4.245524 -45.145881 -35.693562 11.805936 -2.405866 -36.435390 -0.039146 -2.564531 20.268663 -0.434135 -0.127887 0.101837 0.000000 0.000000 0.000000 0.000000 0.000000 0.000000 0.000000 1.696836 -4.730193 -9.694258 82.406729 66.194461 6.080442 -174.511300 57.073646 179.652388 -17.675545 20.341071 -3.408972 0.009077 -1.230146 0.000000 0.000000 0.000000 0.000000 0.000000 0.000000 0.000000 
